<!DOCTYPE svg PUBLIC "-//W3C//DTD SVG 20010904//EN" "http://www.w3.org/TR/2001/REC-SVG-20010904/DTD/svg10.dtd">
<svg version="1.0" xmlns="http://www.w3.org/2000/svg" width="368px" height="195px" viewBox="0 0 3680 1950" preserveAspectRatio="xMidYMid meet">
<g id="layer101" fill="#000000" stroke="none">
</g>
<g id="layer102" fill="#f2fafa" stroke="none">
<path d="M307 1830 c-177 -31 -263 -212 -186 -390 41 -96 136 -153 254 -154 51 0 83 6 118 22 48 21 49 22 54 2 3 -12 14 -20 26 -20 18 0 19 4 13 53 -3 28 -6 69 -6 90 0 30 -4 37 -19 37 -12 0 -21 -10 -26 -27 -17 -68 -77 -113 -151 -113 -56 0 -101 27 -132 79 -25 42 -27 54 -27 156 0 92 3 116 20 144 27 46 64 71 113 78 90 12 160 -26 197 -107 31 -69 45 -53 45 55 0 77 -3 95 -15 95 -8 0 -17 -10 -20 -23 l-6 -23 -47 22 c-55 26 -138 36 -205 24z"/>
<path d="M1975 1826 c-63 -16 -87 -28 -137 -74 -106 -96 -116 -251 -22 -361 117 -136 333 -143 455 -14 50 52 70 96 76 165 7 75 -16 137 -74 199 -73 78 -192 112 -298 85z m152 -53 c97 -45 130 -241 62 -362 -52 -94 -182 -109 -256 -29 -68 72 -76 253 -15 346 36 56 140 78 209 45z"/>
<path d="M3215 1826 c-67 -17 -103 -37 -146 -83 -59 -61 -74 -98 -74 -183 0 -64 4 -82 27 -121 59 -101 150 -152 268 -152 164 0 285 106 298 259 11 145 -107 272 -268 288 -31 3 -77 0 -105 -8z m172 -64 c52 -37 77 -103 76 -199 0 -145 -66 -233 -172 -233 -107 0 -172 88 -174 231 -1 106 41 191 107 220 37 16 129 5 163 -19z"/>
<path d="M660 1816 c0 -7 14 -16 30 -20 20 -4 34 -14 40 -31 11 -29 14 -354 4 -404 -5 -25 -13 -33 -35 -38 -16 -3 -29 -12 -29 -20 0 -11 23 -13 123 -11 74 2 121 7 120 13 -1 6 -11 11 -23 13 -44 7 -50 35 -50 224 0 97 4 188 10 202 12 33 75 50 150 42 69 -8 98 -28 118 -77 8 -21 22 -39 30 -39 12 0 13 9 8 46 -3 26 -6 62 -6 80 l0 34 -245 0 c-201 0 -245 -2 -245 -14z"/>
<path d="M1160 1815 c0 -8 6 -15 14 -15 38 0 66 -51 157 -282 89 -230 93 -238 120 -238 22 0 30 7 42 38 9 20 52 127 97 237 45 110 88 208 97 217 8 9 28 20 44 23 16 4 29 13 29 21 0 11 -25 14 -135 14 -111 0 -135 -3 -135 -14 0 -9 12 -16 28 -18 34 -4 40 -34 17 -94 l-17 -44 -98 0 -99 0 -17 54 c-19 60 -11 86 27 86 11 0 19 7 19 15 0 12 -17 15 -95 15 -78 0 -95 -3 -95 -15z m340 -200 c0 -20 -74 -194 -80 -188 -4 4 -15 28 -25 53 -9 25 -26 66 -36 93 l-19 47 80 0 c44 0 80 -2 80 -5z"/>
<path d="M2520 1815 c0 -9 9 -15 24 -15 13 0 34 -9 47 -19 24 -19 24 -23 27 -219 4 -239 5 -238 -92 -229 -49 4 -65 11 -83 32 -13 14 -23 39 -23 56 0 19 -5 29 -15 29 -12 0 -15 -16 -15 -80 l0 -80 280 0 280 0 0 80 c0 64 -3 80 -15 80 -8 0 -15 -7 -15 -16 0 -9 -7 -31 -16 -50 -17 -36 -57 -54 -121 -54 -65 0 -63 -8 -63 217 0 121 4 212 10 224 7 11 26 21 50 25 24 4 40 12 40 20 0 11 -30 14 -150 14 -127 0 -150 -2 -150 -15z"/>
<path d="M1820 1036 c-184 -40 -339 -236 -340 -428 l0 -48 109 0 108 0 7 51 c14 102 85 202 154 215 63 12 130 -1 170 -33 l38 -30 81 66 82 66 -36 37 c-50 51 -137 95 -213 107 -78 13 -89 13 -160 -3z"/>
<path d="M1480 502 c0 -141 119 -320 255 -384 145 -67 338 -39 449 65 20 19 36 39 36 44 0 5 -36 39 -79 75 -79 66 -79 66 -98 46 -30 -34 -75 -51 -133 -52 -106 -1 -171 68 -204 217 l-6 27 -110 0 -110 0 0 -38z"/>
</g>


</svg>