<svg id="Capa_1" enable-background="new 0 0 512 512" height="512" viewBox="0 0 512 512" width="512" xmlns="http://www.w3.org/2000/svg"><g id="Company"><path d="m128 16h256v480h-256z" fill="#4db5ff"/><path d="m128 105.6v390.4h32v-416z" fill="#4d7cff"/><path d="m352 208v288h32v-262.4z" fill="#4d7cff"/><path d="m0 208v288h128v-390.4z" fill="#80eaff"/><path d="m384 233.6v262.4h128v-160z" fill="#80eaff"/><g fill="#4db5ff"><path d="m448 368h64v32h-64z"/><path d="m448 432h64v32h-64z"/><path d="m0 368h64v32h-64z"/><path d="m0 304h64v32h-64z"/><path d="m0 240h64v32h-64z"/></g><path d="m192 80h128v32h-128z" fill="#80eaff"/><path d="m192 144h128v32h-128z" fill="#80eaff"/><path d="m192 208h128v32h-128z" fill="#80eaff"/><path d="m192 272h128v32h-128z" fill="#80eaff"/><path d="m192 336h128v32h-128z" fill="#80eaff"/><path d="m0 432h64v32h-64z" fill="#4db5ff"/><path d="m224 432h64v64h-64z" fill="#80eaff"/></g></svg>