<svg id="Capa_1" enable-background="new 0 0 512.024 512.024" height="512" viewBox="0 0 512.024 512.024" width="512" xmlns="http://www.w3.org/2000/svg"><g><path d="m127.013 496.702c.166 8.33-6.542 15.3-15 15.3h-80c-8.464 0-15.165-6.976-15-15.3l8-401c.17-8.17 6.83-14.7 15-14.7h64c8.17 0 14.83 6.53 15 14.7z" fill="#9d9bdf"/><path d="m127.013 496.702c.166 8.33-6.542 15.3-15 15.3h-40v-431h32c8.17 0 14.83 6.53 15 14.7z" fill="#5e69e2"/><path d="m180.583 65.552-33 40c-2.85 3.45-7.09 5.45-11.57 5.45h-121c-8.28 0-15-6.72-15-15v-81c0-8.28 6.72-15 15-15h121c4.54 0 8.84 2.06 11.69 5.59l33 41c4.46 5.55 4.41 13.47-.12 18.96z" fill="#0a789b"/><path d="m180.583 65.552-33 40c-2.85 3.45-7.09 5.45-11.57 5.45h-64v-111h64c4.54 0 8.84 2.06 11.69 5.59l33 41c4.46 5.55 4.41 13.47-.12 18.96z" fill="#08475e"/><path d="m271.013 96.002v233c0 8.28-6.72 15-15 15-8.23 0-15-6.675-15-15v-233c0-7.94 6.18-14.45 14-14.96 8.103-.735 16 5.936 16 14.96z" fill="#08475e"/><path d="m271.013 96.002v233c0 9.03-7.912 15.696-16 14.96v-262.92c8.103-.735 16 5.936 16 14.96z" fill="#05303d"/><path d="m311.013 433.002c0 17.15-.98 36.71-8.23 51.77-5.99 12.42-18.96 27.23-46.77 27.23-20.884 0-37.747-8.528-46.77-27.23-7.25-15.06-8.23-34.62-8.23-51.77 0-1.732-.927 4.851 16.17-106.28 1.13-7.32 7.43-12.72 14.83-12.72h48c7.4 0 13.7 5.4 14.83 12.72 17.115 111.246 16.17 104.546 16.17 106.28z" fill="#ffdd54"/><path d="m311.013 433.002c0 17.15-.98 36.71-8.23 51.77-9.233 19.145-27.233 27.843-47.77 27.22v-197.99h25c7.4 0 13.7 5.4 14.83 12.72 17.115 111.246 16.17 104.546 16.17 106.28z" fill="#ffb454"/><path d="m310.693 18.082-17 81c-1.46 6.95-7.58 11.92-14.68 11.92h-48c-7.1 0-13.22-4.97-14.68-11.92l-17-81c-1.953-9.281 5.13-18.08 14.68-18.08h82c9.503 0 16.642 8.755 14.68 18.08z" fill="#0a789b"/><path d="m310.693 18.082-17 81c-1.46 6.95-7.58 11.92-14.68 11.92h-23v-111h40c9.503 0 16.642 8.755 14.68 18.08z" fill="#08475e"/><path d="m479.013 128.002v256c0 8.28-6.72 15-15 15h-64c-8.28 0-15-6.72-15-15v-256c0-8.28 6.72-15 15-15h64c8.28 0 15 6.72 15 15z" fill="#ff7038"/><path d="m479.013 128.002v256c0 8.28-6.72 15-15 15h-32v-286h32c8.28 0 15 6.72 15 15z" fill="#ff2929"/><path d="m509.933 432.382-30.92-52.47v-10.91h-94v10.91l-30.92 52.47c-2.75 4.67-2.77 10.45-.06 15.14l33 57c2.68 4.63 7.63 7.48 12.98 7.48h64c5.35 0 10.3-2.85 12.98-7.48l33-57c2.71-4.69 2.69-10.47-.06-15.14zm-54.57 49.62h-46.7l-24.28-41.93 24.2-41.07h46.86l24.2 41.07z" fill="#0a789b"/><path d="m509.993 447.522-33 57c-2.68 4.63-7.63 7.48-12.98 7.48h-32v-30h23.35l24.28-41.93-24.2-41.07h-23.43v-30h47v10.91l30.92 52.47c2.75 4.67 2.77 10.45.06 15.14z" fill="#08475e"/><path d="m509.933 79.622-30.92 52.47v10.91h-94v-10.91l-30.92-52.47c-2.75-4.67-2.77-10.45-.06-15.14l33-57c4.15-7.17 13.33-9.61 20.5-5.46 7.16 4.15 9.61 13.33 5.46 20.5l-28.61 49.41 24.2 41.07h46.86l24.2-41.07-28.61-49.41c-4.15-7.17-1.7-16.35 5.46-20.5 7.17-4.15 16.35-1.71 20.5 5.46l33 57c2.71 4.69 2.69 10.47-.06 15.14z" fill="#0a789b"/><path d="m509.933 79.622-30.92 52.47v10.91h-47v-30h23.43l24.2-41.07-28.61-49.41c-4.15-7.17-1.7-16.35 5.46-20.5 7.17-4.15 16.35-1.71 20.5 5.46l33 57c2.71 4.69 2.69 10.47-.06 15.14z" fill="#08475e"/></g></svg>